HIERARCHY
ROOT hip
{
	OFFSET 0.000000 0.000000 0.000000 
	CHANNELS 6 Xposition Yposition Zposition Xrotation Zrotation Yrotation
	JOINT abdomen
	{
		OFFSET 0.000000 3.402643 0.000000 
		CHANNELS 3 Xrotation Zrotation Yrotation
		JOINT chest
		{
			OFFSET 0.000000 8.438565 -0.680529 
			CHANNELS 3 Xrotation Zrotation Yrotation
			JOINT neck
			{
				OFFSET 0.000000 10.207942 -0.272212 
				CHANNELS 3 Xrotation Zrotation Yrotation
				JOINT head
				{
					OFFSET 0.000000 3.130431 0.000000 
					CHANNELS 3 Xrotation Zrotation Yrotation
					End Site
					{
						OFFSET 0.000000 3.130435 0.000000 
					}
				}
			}
			JOINT lCollar
			{
				OFFSET 3.470700 6.669187 -0.816635 
				CHANNELS 3 Yrotation Zrotation Xrotation
				JOINT lShldr
				{
					OFFSET 3.198488 0.000000 0.000000 
					CHANNELS 3 Zrotation Yrotation Xrotation
					JOINT lForeArm
					{
						OFFSET 10.139888 0.000000 0.000000 
						CHANNELS 3 Yrotation Zrotation Xrotation
						JOINT lHand
						{
							OFFSET 8.370511 0.000000 0.000000 
							CHANNELS 3 Zrotation Yrotation Xrotation
							End Site
							{
								OFFSET 4.083176 0.000000 0.000000 
							}
						}
					}
				}
			}
			JOINT rCollar
			{
				OFFSET -3.470700 6.669187 -0.816635 
				CHANNELS 3 Yrotation Zrotation Xrotation
				JOINT rShldr
				{
					OFFSET -3.198488 0.000000 0.000000 
					CHANNELS 3 Zrotation Yrotation Xrotation
					JOINT rForeArm
					{
						OFFSET -10.139888 0.000000 0.000000 
						CHANNELS 3 Yrotation Zrotation Xrotation
						JOINT rHand
						{
							OFFSET -8.370511 0.000000 0.000000 
							CHANNELS 3 Zrotation Yrotation Xrotation
							End Site
							{
								OFFSET -4.083176 0.000000 0.000000 
							}
						}
					}
				}
			}
		}
	}
	JOINT lThigh
	{
		OFFSET 5.308129 -1.633274 1.361059 
		CHANNELS 3 Xrotation Zrotation Yrotation
		JOINT lShin
		{
			OFFSET -2.041588 -20.007561 0.000000 
			CHANNELS 3 Xrotation Zrotation Yrotation
			JOINT lFoot
			{
				OFFSET 0.000000 -19.190928 -1.224953 
				CHANNELS 3 Xrotation Yrotation Zrotation
				End Site
				{
					OFFSET 0.000000 -2.449906 4.627600 
				}
			}
		}
	}
	JOINT rThigh
	{
		OFFSET -5.308129 -1.633274 1.361059 
		CHANNELS 3 Xrotation Zrotation Yrotation
		JOINT rShin
		{
			OFFSET 2.041588 -20.007561 0.000000 
			CHANNELS 3 Xrotation Zrotation Yrotation
			JOINT rFoot
			{
				OFFSET 0.000000 -19.190928 -1.224953 
				CHANNELS 3 Xrotation Yrotation Zrotation
				End Site
				{
					OFFSET 0.000000 -2.449906 4.627600 
				}
			}
		}
	}
}
MOTION
Frames: 16
Frame Time: 0.033333
0.334508 49.638664 0.334508 0.000000 0.000000 0.000000 18.076170 -0.000052 -0.000031 -27.002974 -1.018887 -8.937980 3.267481 0.445136 -8.320528 10.524219 0.508720 -0.030344 -32.595493 -2.956590 -21.390736 -53.540382 -47.950401 -13.059965 -77.398788 -3.118325 1.308903 -19.534592 32.244743 123.179771 -1.432864 10.161654 -23.426588 78.662933 12.315494 14.733590 91.055901 3.194471 0.944399 38.805038 50.520535 65.806732 2.376307 2.553305 0.602678 2.310530 -1.853541 -1.517510 -4.662024 0.846682 -0.614829 2.206921 -3.085746 -0.644749 2.650610 1.831281 1.545582 -4.841407 -0.873909 1.111763 
0.334508 49.638664 0.334508 0.000000 0.000000 0.000000 18.076170 -0.000052 -0.000031 -27.002974 -1.018887 -8.937980 3.577674 0.492971 -8.314240 10.524219 0.508720 -0.030344 -32.686523 -3.373638 -21.127960 -53.004047 -48.204140 -13.214705 -77.398788 -3.118325 1.308903 -19.534592 32.244743 123.179771 -1.413996 10.363994 -23.129501 78.477791 12.616681 14.740013 91.055901 3.194471 0.944399 38.805038 50.520535 65.806732 2.376307 2.553305 0.602678 2.310530 -1.853541 -1.517510 -4.662024 0.846682 -0.614829 2.206921 -3.085746 -0.644749 2.650610 1.831281 1.545582 -4.841407 -0.873909 1.111763 
0.334508 49.638664 0.334508 0.000000 0.000000 0.000000 18.076170 -0.000052 -0.000031 -27.002974 -1.018887 -8.937980 3.956112 0.544877 -8.307067 10.524219 0.508720 -0.030344 -32.788898 -3.899354 -20.798632 -52.336517 -48.516758 -13.403957 -77.398788 -3.118325 1.308903 -19.534592 32.244743 123.179771 -1.406938 10.598264 -22.765284 78.256287 12.986898 14.750958 91.055901 3.194471 0.944399 38.805038 50.520535 65.806732 2.376307 2.553305 0.602678 2.310530 -1.853541 -1.517510 -4.662024 0.846682 -0.614829 2.206921 -3.085746 -0.644749 2.650610 1.831281 1.545582 -4.841407 -0.873909 1.111763 
0.334508 49.638664 0.334508 0.000000 0.000000 0.000000 18.076170 -0.000052 -0.000031 -27.002974 -1.018887 -8.937980 4.382627 0.610534 -8.307073 10.524219 0.508720 -0.030344 -32.905239 -4.482385 -20.443914 -51.590538 -48.873226 -13.623116 -77.398788 -3.118325 1.308903 -19.534592 32.244743 123.179771 -1.408868 10.870385 -22.358101 77.999184 13.414761 14.760736 91.055901 3.194471 0.944399 38.805038 50.520535 65.806732 2.376307 2.553305 0.602678 2.310530 -1.853541 -1.517510 -4.662024 0.846682 -0.614829 2.206921 -3.085746 -0.644749 2.650610 1.831281 1.545582 -4.841407 -0.873909 1.111763 
0.334508 49.638664 0.334508 0.000000 0.000000 0.000000 18.076170 -0.000052 -0.000031 -27.002974 -1.018887 -8.937980 4.848260 0.677129 -8.296177 10.524219 0.508720 -0.030344 -33.026249 -5.123393 -20.055946 -50.755062 -49.258938 -13.876947 -77.398788 -3.118325 1.308903 -19.534592 32.244743 123.179771 -1.400533 11.169333 -21.915831 77.718842 13.872075 14.772346 91.055901 3.194471 0.944399 38.805038 50.520535 65.806732 2.376307 2.553305 0.602678 2.310530 -1.853541 -1.517510 -4.662024 0.846682 -0.614829 2.206921 -3.085746 -0.644749 2.650610 1.831281 1.545582 -4.841407 -0.873909 1.111763 
0.334508 49.638664 0.334508 0.000000 0.000000 0.000000 18.076170 -0.000052 -0.000031 -27.002974 -1.018887 -8.937980 5.342593 0.754902 -8.282269 10.524219 0.508720 -0.030344 -33.130329 -5.801103 -19.631157 -49.866779 -49.670784 -14.150550 -77.398788 -3.118325 1.308903 -19.534592 32.244743 123.179771 -1.391080 11.485923 -21.446239 77.434555 14.359779 14.787776 91.055901 3.194471 0.944399 38.805038 50.520535 65.806732 2.376307 2.553305 0.602678 2.310530 -1.853541 -1.517510 -4.662024 0.846682 -0.614829 2.206921 -3.085746 -0.644749 2.650610 1.831281 1.545582 -4.841407 -0.873909 1.111763 
0.334508 49.638664 0.334508 0.000000 0.000000 0.000000 18.076170 -0.000052 -0.000031 -27.002974 -1.018887 -8.937980 5.846709 0.833053 -8.267293 10.524219 0.508720 -0.030344 -33.235111 -6.487142 -19.213562 -48.967628 -50.080708 -14.434143 -77.398788 -3.118325 1.308903 -19.534592 32.244743 123.179771 -1.397041 11.817926 -20.956112 77.128830 14.856011 14.798793 91.055901 3.194471 0.944399 38.805038 50.520535 65.806732 2.376307 2.553305 0.602678 2.310530 -1.853541 -1.517510 -4.662024 0.846682 -0.614829 2.206921 -3.085746 -0.644749 2.650610 1.831281 1.545582 -4.841407 -0.873909 1.111763 
0.334508 49.638664 0.334508 0.000000 0.000000 0.000000 18.076170 -0.000052 -0.000031 -27.002974 -1.018887 -8.937980 6.341575 0.902146 -8.262889 10.524219 0.508720 -0.030344 -33.335209 -7.176619 -18.797804 -48.056076 -50.490257 -14.725656 -77.398788 -3.118325 1.308903 -19.534592 32.244743 123.179771 -1.406806 12.136168 -20.487167 76.842705 15.341759 14.803887 91.055901 3.194471 0.944399 38.805038 50.520535 65.806732 2.376307 2.553305 0.602678 2.310530 -1.853541 -1.517510 -4.662024 0.846682 -0.614829 2.206921 -3.085746 -0.644749 2.650610 1.831281 1.545582 -4.841407 -0.873909 1.111763 
0.334508 49.638664 0.334508 0.000000 0.000000 0.000000 18.076170 -0.000052 -0.000031 -27.002974 -1.018887 -8.937980 6.826820 0.969184 -8.248020 10.524219 0.508720 -0.030344 -33.418015 -7.850150 -18.398613 -47.186165 -50.884342 -14.997987 -77.398788 -3.118325 1.308903 -19.534592 32.244743 123.179771 -1.419412 12.438370 -20.025003 76.556534 15.819700 14.820071 91.055901 3.194471 0.944399 38.805038 50.520535 65.806732 2.376307 2.553305 0.602678 2.310530 -1.853541 -1.517510 -4.662024 0.846682 -0.614829 2.206921 -3.085746 -0.644749 2.650610 1.831281 1.545582 -4.841407 -0.873909 1.111763 
0.334508 49.638664 0.334508 0.000000 0.000000 0.000000 18.076170 -0.000052 -0.000031 -27.002974 -1.018887 -8.937980 7.272545 1.043229 -8.230860 10.524219 0.508720 -0.030344 -33.484756 -8.460690 -18.020296 -46.378212 -51.243446 -15.249736 -77.398788 -3.118325 1.308903 -19.534592 32.244743 123.179771 -1.427651 12.731177 -19.589863 76.293388 16.256737 14.823744 91.055901 3.194471 0.944399 38.805038 50.520535 65.806732 2.376307 2.553305 0.602678 2.310530 -1.853541 -1.517510 -4.662024 0.846682 -0.614829 2.206921 -3.085746 -0.644749 2.650610 1.831281 1.545582 -4.841407 -0.873909 1.111763 
0.334508 49.638664 0.334508 0.000000 0.000000 0.000000 18.076170 -0.000052 -0.000031 -27.002974 -1.018887 -8.937980 7.660807 1.095927 -8.227706 10.524219 0.508720 -0.030344 -33.544498 -9.022264 -17.704807 -45.643887 -51.566425 -15.505793 -77.398788 -3.118325 1.308903 -19.534592 32.244743 123.179771 -1.457360 12.988706 -19.218719 76.064186 16.645620 14.826189 91.055901 3.194471 0.944399 38.805038 50.520535 65.806732 2.376307 2.553305 0.602678 2.310530 -1.853541 -1.517510 -4.662024 0.846682 -0.614829 2.206921 -3.085746 -0.644749 2.650610 1.831281 1.545582 -4.841407 -0.873909 1.111763 
0.334508 49.638664 0.334508 0.000000 0.000000 0.000000 18.076170 -0.000052 -0.000031 -27.002974 -1.018887 -8.937980 8.000436 1.144360 -8.215170 10.524219 0.508720 -0.030344 -33.591282 -9.481220 -17.417721 -45.016335 -51.840519 -15.711503 -77.398788 -3.118325 1.308903 -19.534592 32.244743 123.179771 -1.469963 13.205945 -18.893219 75.860428 16.978176 14.844645 91.055901 3.194471 0.944399 38.805038 50.520535 65.806732 2.376307 2.553305 0.602678 2.310530 -1.853541 -1.517510 -4.662024 0.846682 -0.614829 2.206921 -3.085746 -0.644749 2.650610 1.831281 1.545582 -4.841407 -0.873909 1.111763 
0.334508 49.638664 0.334508 0.000000 0.000000 0.000000 18.076170 -0.000052 -0.000031 -27.002974 -1.018887 -8.937980 8.252868 1.178099 -8.206091 10.524219 0.508720 -0.030344 -33.616817 -9.848295 -17.212069 -44.544716 -52.047241 -15.873593 -77.398788 -3.118325 1.308903 -19.534592 32.244743 123.179771 -1.485341 13.368340 -18.646799 75.714104 17.231329 14.848062 91.055901 3.194471 0.944399 38.805038 50.520535 65.806732 2.376307 2.553305 0.602678 2.310530 -1.853541 -1.517510 -4.662024 0.846682 -0.614829 2.206921 -3.085746 -0.644749 2.650610 1.831281 1.545582 -4.841407 -0.873909 1.111763 
0.334508 49.638664 0.334508 0.000000 0.000000 0.000000 18.076170 -0.000052 -0.000031 -27.002974 -1.018887 -8.937980 8.417548 1.206675 -8.198601 10.524219 0.508720 -0.030344 -33.627731 -10.072364 -17.074009 -44.233025 -52.178970 -15.980575 -77.398788 -3.118325 1.308903 -19.534592 32.244743 123.179771 -1.491564 13.471514 -18.493923 75.617912 17.387373 14.852695 91.055901 3.194471 0.944399 38.805038 50.520535 65.806732 2.376307 2.553305 0.602678 2.310530 -1.853541 -1.517510 -4.662024 0.846682 -0.614829 2.206921 -3.085746 -0.644749 2.650610 1.831281 1.545582 -4.841407 -0.873909 1.111763 
0.334508 49.638664 0.334508 0.000000 0.000000 0.000000 18.076170 -0.000052 -0.000031 -27.002974 -1.018887 -8.937980 8.476055 1.210076 -8.197525 10.524219 0.508720 -0.030344 -33.632824 -10.164301 -17.023420 -44.129791 -52.231186 -16.012480 -77.398788 -3.118325 1.308903 -19.534592 32.244743 123.179771 -1.495055 13.509241 -18.438652 75.581757 17.446795 14.858482 91.055901 3.194471 0.944399 38.805038 50.520535 65.806732 2.376307 2.553305 0.602678 2.310530 -1.853541 -1.517510 -4.662024 0.846682 -0.614829 2.206921 -3.085746 -0.644749 2.650610 1.831281 1.545582 -4.841407 -0.873909 1.111763 
0.334508 49.638664 0.334508 0.000000 0.000000 0.000000 18.076170 -0.000052 -0.000031 -27.002974 -1.018887 -8.937980 8.417548 1.206675 -8.198601 10.524219 0.508720 -0.030344 -33.627731 -10.072364 -17.074009 -44.233025 -52.178970 -15.980575 -77.398788 -3.118325 1.308903 -19.534592 32.244743 123.179771 -1.491564 13.471514 -18.493923 75.617912 17.387373 14.852695 91.055901 3.194471 0.944399 38.805038 50.520535 65.806732 2.376307 2.553305 0.602678 2.310530 -1.853541 -1.517510 -4.662024 0.846682 -0.614829 2.206921 -3.085746 -0.644749 2.650610 1.831281 1.545582 -4.841407 -0.873909 1.111763 
